<mxfile host="app.diagrams.net" agent="Mozilla/5.0 (Windows NT 10.0; Win64; x64) AppleWebKit/537.36 (KHTML, like Gecko) Chrome/131.0.0.0 Safari/537.36 Edg/131.0.0.0" version="26.0.2">
  <diagram name="Page-1" id="5f0bae14-7c28-e335-631c-24af17079c00">
    <mxGraphModel dx="1096" dy="1604" grid="1" gridSize="10" guides="1" tooltips="1" connect="1" arrows="1" fold="1" page="1" pageScale="1" pageWidth="1100" pageHeight="850" background="none" math="0" shadow="0">
      <root>
        <mxCell id="0" />
        <mxCell id="1" parent="0" />
        <mxCell id="39150e848f15840c-3" value="" style="verticalAlign=top;align=left;spacingTop=8;spacingLeft=2;spacingRight=12;shape=cube;size=10;direction=south;fontStyle=4;html=1;rounded=0;shadow=0;comic=0;labelBackgroundColor=none;strokeWidth=1;fontFamily=Verdana;fontSize=12" parent="1" vertex="1">
          <mxGeometry x="580" y="643" width="170" height="110" as="geometry" />
        </mxCell>
        <mxCell id="sWlAW-j6Ckf_Sh6xSLSx-2" value="" style="rounded=1;whiteSpace=wrap;html=1;" parent="1" vertex="1">
          <mxGeometry x="596" y="684" width="120" height="60" as="geometry" />
        </mxCell>
        <mxCell id="sWlAW-j6Ckf_Sh6xSLSx-4" value="&amp;lt;&amp;lt;device&amp;gt;&amp;gt;&lt;div&gt;&lt;font style=&quot;font-size: 10px;&quot;&gt;File Storage&lt;/font&gt;&lt;/div&gt;" style="text;html=1;align=center;verticalAlign=middle;whiteSpace=wrap;rounded=0;" parent="1" vertex="1">
          <mxGeometry x="620" y="653" width="80" height="30" as="geometry" />
        </mxCell>
        <mxCell id="sWlAW-j6Ckf_Sh6xSLSx-5" value="&amp;lt;&amp;lt;artifact&amp;gt;&amp;gt;&lt;div&gt;&lt;font style=&quot;font-size: 10px;&quot;&gt;S3 Compatible Storage&lt;/font&gt;&lt;/div&gt;" style="text;html=1;align=center;verticalAlign=middle;whiteSpace=wrap;rounded=0;" parent="1" vertex="1">
          <mxGeometry x="601" y="699" width="115" height="22" as="geometry" />
        </mxCell>
        <mxCell id="sWlAW-j6Ckf_Sh6xSLSx-6" value="" style="verticalAlign=top;align=left;spacingTop=8;spacingLeft=2;spacingRight=12;shape=cube;size=10;direction=south;fontStyle=4;html=1;rounded=0;shadow=0;comic=0;labelBackgroundColor=none;strokeWidth=1;fontFamily=Verdana;fontSize=12" parent="1" vertex="1">
          <mxGeometry x="400" y="482" width="170" height="140" as="geometry" />
        </mxCell>
        <mxCell id="sWlAW-j6Ckf_Sh6xSLSx-7" value="" style="rounded=1;whiteSpace=wrap;html=1;" parent="1" vertex="1">
          <mxGeometry x="416" y="523" width="120" height="39" as="geometry" />
        </mxCell>
        <mxCell id="sWlAW-j6Ckf_Sh6xSLSx-8" value="&amp;lt;&amp;lt;device&amp;gt;&amp;gt;&lt;div&gt;&lt;font style=&quot;font-size: 10px;&quot;&gt;Data Storage&lt;/font&gt;&lt;/div&gt;" style="text;html=1;align=center;verticalAlign=middle;whiteSpace=wrap;rounded=0;" parent="1" vertex="1">
          <mxGeometry x="440" y="492" width="80" height="30" as="geometry" />
        </mxCell>
        <mxCell id="sWlAW-j6Ckf_Sh6xSLSx-9" value="&amp;lt;&amp;lt;artifact&amp;gt;&amp;gt;&lt;div&gt;&lt;font style=&quot;font-size: 10px;&quot;&gt;MongoDB&lt;/font&gt;&lt;/div&gt;" style="text;html=1;align=center;verticalAlign=middle;whiteSpace=wrap;rounded=0;" parent="1" vertex="1">
          <mxGeometry x="421" y="530" width="115" height="22" as="geometry" />
        </mxCell>
        <mxCell id="sWlAW-j6Ckf_Sh6xSLSx-12" value="" style="rounded=1;whiteSpace=wrap;html=1;" parent="1" vertex="1">
          <mxGeometry x="416" y="572" width="120" height="39" as="geometry" />
        </mxCell>
        <mxCell id="sWlAW-j6Ckf_Sh6xSLSx-13" value="&amp;lt;&amp;lt;artifact&amp;gt;&amp;gt;&lt;div&gt;&lt;font style=&quot;font-size: 10px;&quot;&gt;Redis Cache&lt;/font&gt;&lt;/div&gt;" style="text;html=1;align=center;verticalAlign=middle;whiteSpace=wrap;rounded=0;" parent="1" vertex="1">
          <mxGeometry x="421" y="579" width="115" height="22" as="geometry" />
        </mxCell>
        <mxCell id="sWlAW-j6Ckf_Sh6xSLSx-14" value="" style="verticalAlign=top;align=left;spacingTop=8;spacingLeft=2;spacingRight=12;shape=cube;size=10;direction=south;fontStyle=4;html=1;rounded=0;shadow=0;comic=0;labelBackgroundColor=none;strokeWidth=1;fontFamily=Verdana;fontSize=12" parent="1" vertex="1">
          <mxGeometry x="770" y="471.5" width="170" height="140" as="geometry" />
        </mxCell>
        <mxCell id="sWlAW-j6Ckf_Sh6xSLSx-15" value="" style="rounded=1;whiteSpace=wrap;html=1;" parent="1" vertex="1">
          <mxGeometry x="786" y="512.5" width="120" height="39" as="geometry" />
        </mxCell>
        <mxCell id="sWlAW-j6Ckf_Sh6xSLSx-16" value="&amp;lt;&amp;lt;device&amp;gt;&amp;gt;&lt;div&gt;&lt;font style=&quot;font-size: 10px;&quot;&gt;File Storage&lt;/font&gt;&lt;/div&gt;" style="text;html=1;align=center;verticalAlign=middle;whiteSpace=wrap;rounded=0;" parent="1" vertex="1">
          <mxGeometry x="810" y="481.5" width="80" height="30" as="geometry" />
        </mxCell>
        <mxCell id="sWlAW-j6Ckf_Sh6xSLSx-17" value="&amp;lt;&amp;lt;artifact&amp;gt;&amp;gt;&lt;div&gt;&lt;font style=&quot;font-size: 10px;&quot;&gt;MongoDB&lt;/font&gt;&lt;/div&gt;" style="text;html=1;align=center;verticalAlign=middle;whiteSpace=wrap;rounded=0;" parent="1" vertex="1">
          <mxGeometry x="791" y="519.5" width="115" height="22" as="geometry" />
        </mxCell>
        <mxCell id="sWlAW-j6Ckf_Sh6xSLSx-18" value="" style="rounded=1;whiteSpace=wrap;html=1;" parent="1" vertex="1">
          <mxGeometry x="786" y="561.5" width="120" height="39" as="geometry" />
        </mxCell>
        <mxCell id="sWlAW-j6Ckf_Sh6xSLSx-19" value="&amp;lt;&amp;lt;artifact&amp;gt;&amp;gt;&lt;div&gt;&lt;font style=&quot;font-size: 10px;&quot;&gt;Redis Cache&lt;/font&gt;&lt;/div&gt;" style="text;html=1;align=center;verticalAlign=middle;whiteSpace=wrap;rounded=0;" parent="1" vertex="1">
          <mxGeometry x="791" y="568.5" width="115" height="22" as="geometry" />
        </mxCell>
        <mxCell id="sWlAW-j6Ckf_Sh6xSLSx-20" value="" style="verticalAlign=top;align=left;spacingTop=8;spacingLeft=2;spacingRight=12;shape=cube;size=10;direction=south;fontStyle=4;html=1;rounded=0;shadow=0;comic=0;labelBackgroundColor=none;strokeWidth=1;fontFamily=Verdana;fontSize=12" parent="1" vertex="1">
          <mxGeometry x="400" y="275" width="170" height="140" as="geometry" />
        </mxCell>
        <mxCell id="sWlAW-j6Ckf_Sh6xSLSx-21" value="" style="rounded=1;whiteSpace=wrap;html=1;" parent="1" vertex="1">
          <mxGeometry x="416" y="316" width="120" height="39" as="geometry" />
        </mxCell>
        <mxCell id="sWlAW-j6Ckf_Sh6xSLSx-22" value="&amp;lt;&amp;lt;device&amp;gt;&amp;gt;&lt;div&gt;&lt;span style=&quot;font-size: 10px;&quot;&gt;Application Server 1&lt;/span&gt;&lt;/div&gt;" style="text;html=1;align=center;verticalAlign=middle;whiteSpace=wrap;rounded=0;" parent="1" vertex="1">
          <mxGeometry x="428" y="285" width="100" height="30" as="geometry" />
        </mxCell>
        <mxCell id="sWlAW-j6Ckf_Sh6xSLSx-23" value="&amp;lt;&amp;lt;artifact&amp;gt;&amp;gt;&lt;div&gt;&lt;span style=&quot;font-size: 10px;&quot;&gt;Node.js Runtime&lt;/span&gt;&lt;/div&gt;" style="text;html=1;align=center;verticalAlign=middle;whiteSpace=wrap;rounded=0;" parent="1" vertex="1">
          <mxGeometry x="421" y="323" width="115" height="22" as="geometry" />
        </mxCell>
        <mxCell id="sWlAW-j6Ckf_Sh6xSLSx-24" value="" style="rounded=1;whiteSpace=wrap;html=1;" parent="1" vertex="1">
          <mxGeometry x="416" y="365" width="120" height="39" as="geometry" />
        </mxCell>
        <mxCell id="sWlAW-j6Ckf_Sh6xSLSx-25" value="&amp;lt;&amp;lt;artifact&amp;gt;&amp;gt;&lt;div&gt;&lt;font style=&quot;font-size: 10px;&quot;&gt;ERP microservices&lt;/font&gt;&lt;/div&gt;" style="text;html=1;align=center;verticalAlign=middle;whiteSpace=wrap;rounded=0;" parent="1" vertex="1">
          <mxGeometry x="421" y="372" width="115" height="22" as="geometry" />
        </mxCell>
        <mxCell id="sWlAW-j6Ckf_Sh6xSLSx-26" value="" style="verticalAlign=top;align=left;spacingTop=8;spacingLeft=2;spacingRight=12;shape=cube;size=10;direction=south;fontStyle=4;html=1;rounded=0;shadow=0;comic=0;labelBackgroundColor=none;strokeWidth=1;fontFamily=Verdana;fontSize=12" parent="1" vertex="1">
          <mxGeometry x="761" y="275" width="170" height="140" as="geometry" />
        </mxCell>
        <mxCell id="sWlAW-j6Ckf_Sh6xSLSx-32" value="" style="verticalAlign=top;align=left;spacingTop=8;spacingLeft=2;spacingRight=12;shape=cube;size=10;direction=south;fontStyle=4;html=1;rounded=0;shadow=0;comic=0;labelBackgroundColor=none;strokeWidth=1;fontFamily=Verdana;fontSize=12" parent="1" vertex="1">
          <mxGeometry x="580" y="98" width="170" height="90" as="geometry" />
        </mxCell>
        <mxCell id="sWlAW-j6Ckf_Sh6xSLSx-33" value="" style="rounded=1;whiteSpace=wrap;html=1;" parent="1" vertex="1">
          <mxGeometry x="596" y="139" width="120" height="39" as="geometry" />
        </mxCell>
        <mxCell id="sWlAW-j6Ckf_Sh6xSLSx-34" value="&amp;lt;&amp;lt;device&amp;gt;&amp;gt;&lt;div&gt;&lt;font style=&quot;font-size: 10px;&quot;&gt;Load Balancer&lt;/font&gt;&lt;/div&gt;" style="text;html=1;align=center;verticalAlign=middle;whiteSpace=wrap;rounded=0;" parent="1" vertex="1">
          <mxGeometry x="620" y="108" width="80" height="30" as="geometry" />
        </mxCell>
        <mxCell id="sWlAW-j6Ckf_Sh6xSLSx-35" value="&amp;lt;&amp;lt;artifact&amp;gt;&amp;gt;&lt;div&gt;&lt;font style=&quot;font-size: 10px;&quot;&gt;NGINX&lt;/font&gt;&lt;/div&gt;" style="text;html=1;align=center;verticalAlign=middle;whiteSpace=wrap;rounded=0;" parent="1" vertex="1">
          <mxGeometry x="601" y="146" width="115" height="22" as="geometry" />
        </mxCell>
        <mxCell id="sWlAW-j6Ckf_Sh6xSLSx-38" value="" style="verticalAlign=top;align=left;spacingTop=8;spacingLeft=2;spacingRight=12;shape=cube;size=10;direction=south;fontStyle=4;html=1;rounded=0;shadow=0;comic=0;labelBackgroundColor=none;strokeWidth=1;fontFamily=Verdana;fontSize=12" parent="1" vertex="1">
          <mxGeometry x="113" y="92" width="170" height="110" as="geometry" />
        </mxCell>
        <mxCell id="sWlAW-j6Ckf_Sh6xSLSx-39" value="" style="rounded=1;whiteSpace=wrap;html=1;" parent="1" vertex="1">
          <mxGeometry x="129" y="133" width="120" height="59" as="geometry" />
        </mxCell>
        <mxCell id="sWlAW-j6Ckf_Sh6xSLSx-40" value="&amp;lt;&amp;lt;device&amp;gt;&amp;gt;&lt;div&gt;&lt;font style=&quot;font-size: 10px;&quot;&gt;Client Device&lt;/font&gt;&lt;/div&gt;" style="text;html=1;align=center;verticalAlign=middle;whiteSpace=wrap;rounded=0;" parent="1" vertex="1">
          <mxGeometry x="153" y="102" width="80" height="30" as="geometry" />
        </mxCell>
        <mxCell id="sWlAW-j6Ckf_Sh6xSLSx-41" value="&amp;lt;&amp;lt;artifact&amp;gt;&amp;gt;&lt;div&gt;&lt;font style=&quot;font-size: 10px;&quot;&gt;Web Browser(HTML 5)&lt;/font&gt;&lt;/div&gt;&lt;div&gt;&lt;font style=&quot;font-size: 10px;&quot;&gt;React Application&lt;/font&gt;&lt;/div&gt;" style="text;html=1;align=center;verticalAlign=middle;whiteSpace=wrap;rounded=0;" parent="1" vertex="1">
          <mxGeometry x="134" y="140" width="115" height="42" as="geometry" />
        </mxCell>
        <mxCell id="sWlAW-j6Ckf_Sh6xSLSx-44" value="" style="endArrow=none;html=1;rounded=0;entryX=0;entryY=0;entryDx=90;entryDy=90;entryPerimeter=0;exitX=0;exitY=0;exitDx=0;exitDy=80;exitPerimeter=0;" parent="1" source="sWlAW-j6Ckf_Sh6xSLSx-26" target="sWlAW-j6Ckf_Sh6xSLSx-32" edge="1">
          <mxGeometry width="50" height="50" relative="1" as="geometry">
            <mxPoint x="590" y="527" as="sourcePoint" />
            <mxPoint x="640" y="477" as="targetPoint" />
          </mxGeometry>
        </mxCell>
        <mxCell id="sWlAW-j6Ckf_Sh6xSLSx-45" value="" style="endArrow=none;html=1;rounded=0;entryX=0;entryY=0;entryDx=90;entryDy=90;entryPerimeter=0;exitX=0;exitY=0;exitDx=0;exitDy=80;exitPerimeter=0;" parent="1" source="sWlAW-j6Ckf_Sh6xSLSx-20" target="sWlAW-j6Ckf_Sh6xSLSx-32" edge="1">
          <mxGeometry width="50" height="50" relative="1" as="geometry">
            <mxPoint x="590" y="527" as="sourcePoint" />
            <mxPoint x="640" y="477" as="targetPoint" />
          </mxGeometry>
        </mxCell>
        <mxCell id="sWlAW-j6Ckf_Sh6xSLSx-46" value="" style="endArrow=none;html=1;rounded=0;entryX=0;entryY=0;entryDx=140;entryDy=90;entryPerimeter=0;exitX=0;exitY=0.527;exitDx=0;exitDy=0;exitPerimeter=0;" parent="1" source="sWlAW-j6Ckf_Sh6xSLSx-6" target="sWlAW-j6Ckf_Sh6xSLSx-20" edge="1">
          <mxGeometry width="50" height="50" relative="1" as="geometry">
            <mxPoint x="590" y="527" as="sourcePoint" />
            <mxPoint x="640" y="477" as="targetPoint" />
          </mxGeometry>
        </mxCell>
        <mxCell id="sWlAW-j6Ckf_Sh6xSLSx-47" value="" style="endArrow=none;html=1;rounded=0;entryX=0;entryY=0;entryDx=140;entryDy=90;entryPerimeter=0;exitX=-0.015;exitY=0.581;exitDx=0;exitDy=0;exitPerimeter=0;" parent="1" source="sWlAW-j6Ckf_Sh6xSLSx-14" target="sWlAW-j6Ckf_Sh6xSLSx-26" edge="1">
          <mxGeometry width="50" height="50" relative="1" as="geometry">
            <mxPoint x="590" y="527" as="sourcePoint" />
            <mxPoint x="640" y="477" as="targetPoint" />
          </mxGeometry>
        </mxCell>
        <mxCell id="sWlAW-j6Ckf_Sh6xSLSx-48" value="" style="endArrow=none;dashed=1;html=1;rounded=0;exitX=0;exitY=0;exitDx=65;exitDy=0;exitPerimeter=0;entryX=0;entryY=0;entryDx=75;entryDy=170;entryPerimeter=0;" parent="1" source="sWlAW-j6Ckf_Sh6xSLSx-6" target="sWlAW-j6Ckf_Sh6xSLSx-14" edge="1">
          <mxGeometry width="50" height="50" relative="1" as="geometry">
            <mxPoint x="590" y="622" as="sourcePoint" />
            <mxPoint x="640" y="572" as="targetPoint" />
          </mxGeometry>
        </mxCell>
        <mxCell id="sWlAW-j6Ckf_Sh6xSLSx-54" value="Replication" style="edgeLabel;html=1;align=center;verticalAlign=middle;resizable=0;points=[];" parent="sWlAW-j6Ckf_Sh6xSLSx-48" vertex="1" connectable="0">
          <mxGeometry x="-0.12" relative="1" as="geometry">
            <mxPoint x="-2" y="-15" as="offset" />
          </mxGeometry>
        </mxCell>
        <mxCell id="sWlAW-j6Ckf_Sh6xSLSx-49" value="" style="endArrow=none;html=1;rounded=0;exitX=0;exitY=0;exitDx=0;exitDy=80;exitPerimeter=0;entryX=0;entryY=0;entryDx=140;entryDy=90;entryPerimeter=0;" parent="1" source="39150e848f15840c-3" target="sWlAW-j6Ckf_Sh6xSLSx-20" edge="1">
          <mxGeometry width="50" height="50" relative="1" as="geometry">
            <mxPoint x="650" y="627" as="sourcePoint" />
            <mxPoint x="700" y="577" as="targetPoint" />
          </mxGeometry>
        </mxCell>
        <mxCell id="sWlAW-j6Ckf_Sh6xSLSx-53" value="TCP/IP" style="edgeLabel;html=1;align=center;verticalAlign=middle;resizable=0;points=[];" parent="sWlAW-j6Ckf_Sh6xSLSx-49" vertex="1" connectable="0">
          <mxGeometry x="0.8217" relative="1" as="geometry">
            <mxPoint as="offset" />
          </mxGeometry>
        </mxCell>
        <mxCell id="sWlAW-j6Ckf_Sh6xSLSx-50" value="" style="endArrow=none;html=1;rounded=0;exitX=0;exitY=0;exitDx=0;exitDy=80;exitPerimeter=0;entryX=0;entryY=0;entryDx=140;entryDy=90;entryPerimeter=0;" parent="1" source="39150e848f15840c-3" target="sWlAW-j6Ckf_Sh6xSLSx-26" edge="1">
          <mxGeometry width="50" height="50" relative="1" as="geometry">
            <mxPoint x="650" y="627" as="sourcePoint" />
            <mxPoint x="700" y="577" as="targetPoint" />
          </mxGeometry>
        </mxCell>
        <mxCell id="sWlAW-j6Ckf_Sh6xSLSx-51" value="" style="endArrow=none;html=1;rounded=0;entryX=0;entryY=0;entryDx=65;entryDy=0;entryPerimeter=0;exitX=0;exitY=0;exitDx=60;exitDy=170;exitPerimeter=0;" parent="1" source="We_NeUqxBmSDNywsmPrL-1" target="sWlAW-j6Ckf_Sh6xSLSx-38" edge="1">
          <mxGeometry width="50" height="50" relative="1" as="geometry">
            <mxPoint x="724" y="638" as="sourcePoint" />
            <mxPoint x="774" y="588" as="targetPoint" />
          </mxGeometry>
        </mxCell>
        <mxCell id="sWlAW-j6Ckf_Sh6xSLSx-55" value="HTTPS" style="edgeLabel;html=1;align=center;verticalAlign=middle;resizable=0;points=[];" parent="1" vertex="1" connectable="0">
          <mxGeometry x="689.9997250012891" y="561.5000006874968" as="geometry" />
        </mxCell>
        <mxCell id="sWlAW-j6Ckf_Sh6xSLSx-56" value="TCP/IP" style="edgeLabel;html=1;align=center;verticalAlign=middle;resizable=0;points=[];" parent="1" vertex="1" connectable="0">
          <mxGeometry x="870.0015408225593" y="456.9999825530306" as="geometry" />
        </mxCell>
        <mxCell id="sWlAW-j6Ckf_Sh6xSLSx-57" value="HTTPS" style="edgeLabel;html=1;align=center;verticalAlign=middle;resizable=0;points=[];" parent="1" vertex="1" connectable="0">
          <mxGeometry x="689.9997250012891" y="572.0000006874968" as="geometry">
            <mxPoint x="-75" y="-332" as="offset" />
          </mxGeometry>
        </mxCell>
        <mxCell id="sWlAW-j6Ckf_Sh6xSLSx-58" value="HTTPS" style="edgeLabel;html=1;align=center;verticalAlign=middle;resizable=0;points=[];" parent="1" vertex="1" connectable="0">
          <mxGeometry x="709.9997250012891" y="581.5000006874968" as="geometry">
            <mxPoint x="48" y="-348" as="offset" />
          </mxGeometry>
        </mxCell>
        <mxCell id="sWlAW-j6Ckf_Sh6xSLSx-59" value="HTTPS" style="edgeLabel;html=1;align=center;verticalAlign=middle;resizable=0;points=[];" parent="1" vertex="1" connectable="0">
          <mxGeometry x="528.9997250012891" y="133.00000068749682" as="geometry">
            <mxPoint x="30" y="1" as="offset" />
          </mxGeometry>
        </mxCell>
        <mxCell id="sWlAW-j6Ckf_Sh6xSLSx-64" value="" style="rounded=1;whiteSpace=wrap;html=1;" parent="1" vertex="1">
          <mxGeometry x="781" y="316" width="120" height="39" as="geometry" />
        </mxCell>
        <mxCell id="sWlAW-j6Ckf_Sh6xSLSx-65" value="&amp;lt;&amp;lt;artifact&amp;gt;&amp;gt;&lt;div&gt;&lt;span style=&quot;font-size: 10px;&quot;&gt;Node.js Runtime&lt;/span&gt;&lt;/div&gt;" style="text;html=1;align=center;verticalAlign=middle;whiteSpace=wrap;rounded=0;" parent="1" vertex="1">
          <mxGeometry x="786" y="323" width="115" height="22" as="geometry" />
        </mxCell>
        <mxCell id="sWlAW-j6Ckf_Sh6xSLSx-66" value="" style="rounded=1;whiteSpace=wrap;html=1;" parent="1" vertex="1">
          <mxGeometry x="781" y="365" width="120" height="39" as="geometry" />
        </mxCell>
        <mxCell id="sWlAW-j6Ckf_Sh6xSLSx-67" value="&amp;lt;&amp;lt;artifact&amp;gt;&amp;gt;&lt;div&gt;&lt;font style=&quot;font-size: 10px;&quot;&gt;ERP microservices&lt;/font&gt;&lt;/div&gt;" style="text;html=1;align=center;verticalAlign=middle;whiteSpace=wrap;rounded=0;" parent="1" vertex="1">
          <mxGeometry x="786" y="372" width="115" height="22" as="geometry" />
        </mxCell>
        <mxCell id="sWlAW-j6Ckf_Sh6xSLSx-68" value="&amp;lt;&amp;lt;device&amp;gt;&amp;gt;&lt;div&gt;&lt;span style=&quot;font-size: 10px;&quot;&gt;Application Server 1&lt;/span&gt;&lt;/div&gt;" style="text;html=1;align=center;verticalAlign=middle;whiteSpace=wrap;rounded=0;" parent="1" vertex="1">
          <mxGeometry x="786" y="285" width="100" height="30" as="geometry" />
        </mxCell>
        <mxCell id="We_NeUqxBmSDNywsmPrL-1" value="" style="verticalAlign=top;align=left;spacingTop=8;spacingLeft=2;spacingRight=12;shape=cube;size=10;direction=south;fontStyle=4;html=1;rounded=0;shadow=0;comic=0;labelBackgroundColor=none;strokeWidth=1;fontFamily=Verdana;fontSize=12" vertex="1" parent="1">
          <mxGeometry x="354" y="97" width="170" height="110" as="geometry" />
        </mxCell>
        <mxCell id="We_NeUqxBmSDNywsmPrL-2" value="" style="rounded=1;whiteSpace=wrap;html=1;" vertex="1" parent="1">
          <mxGeometry x="370" y="138" width="120" height="59" as="geometry" />
        </mxCell>
        <mxCell id="We_NeUqxBmSDNywsmPrL-3" value="&amp;lt;&amp;lt;device&amp;gt;&amp;gt;&lt;div&gt;&lt;span style=&quot;font-size: 10px;&quot;&gt;API Gateway&lt;/span&gt;&lt;/div&gt;" style="text;html=1;align=center;verticalAlign=middle;whiteSpace=wrap;rounded=0;" vertex="1" parent="1">
          <mxGeometry x="394" y="107" width="80" height="30" as="geometry" />
        </mxCell>
        <mxCell id="We_NeUqxBmSDNywsmPrL-4" value="&amp;lt;&amp;lt;artifact&amp;gt;&amp;gt;&lt;div&gt;&lt;span style=&quot;font-size: 10px;&quot;&gt;Gateway service&lt;/span&gt;&lt;/div&gt;" style="text;html=1;align=center;verticalAlign=middle;whiteSpace=wrap;rounded=0;" vertex="1" parent="1">
          <mxGeometry x="375" y="145" width="115" height="42" as="geometry" />
        </mxCell>
        <mxCell id="We_NeUqxBmSDNywsmPrL-5" value="" style="endArrow=none;html=1;rounded=0;entryX=0;entryY=0;entryDx=50;entryDy=0;entryPerimeter=0;exitX=0;exitY=0;exitDx=50;exitDy=170;exitPerimeter=0;" edge="1" parent="1" source="sWlAW-j6Ckf_Sh6xSLSx-32" target="We_NeUqxBmSDNywsmPrL-1">
          <mxGeometry width="50" height="50" relative="1" as="geometry">
            <mxPoint x="290" y="150" as="sourcePoint" />
            <mxPoint x="190" y="155" as="targetPoint" />
          </mxGeometry>
        </mxCell>
        <mxCell id="We_NeUqxBmSDNywsmPrL-6" value="HTTPS" style="edgeLabel;html=1;align=center;verticalAlign=middle;resizable=0;points=[];" vertex="1" connectable="0" parent="1">
          <mxGeometry x="535.9997250012891" y="140.00000068749682" as="geometry">
            <mxPoint x="-229" y="-3" as="offset" />
          </mxGeometry>
        </mxCell>
        <mxCell id="We_NeUqxBmSDNywsmPrL-11" value="" style="verticalAlign=top;align=left;spacingTop=8;spacingLeft=2;spacingRight=12;shape=cube;size=10;direction=south;fontStyle=4;html=1;rounded=0;shadow=0;comic=0;labelBackgroundColor=none;strokeWidth=1;fontFamily=Verdana;fontSize=12" vertex="1" parent="1">
          <mxGeometry x="823" y="634" width="170" height="110" as="geometry" />
        </mxCell>
        <mxCell id="We_NeUqxBmSDNywsmPrL-12" value="" style="rounded=1;whiteSpace=wrap;html=1;" vertex="1" parent="1">
          <mxGeometry x="839" y="675" width="120" height="60" as="geometry" />
        </mxCell>
        <mxCell id="We_NeUqxBmSDNywsmPrL-13" value="&amp;lt;&amp;lt;device&amp;gt;&amp;gt;&lt;div&gt;&lt;font style=&quot;font-size: 10px;&quot;&gt;Backup Storage&lt;/font&gt;&lt;/div&gt;" style="text;html=1;align=center;verticalAlign=middle;whiteSpace=wrap;rounded=0;" vertex="1" parent="1">
          <mxGeometry x="863" y="644" width="80" height="30" as="geometry" />
        </mxCell>
        <mxCell id="We_NeUqxBmSDNywsmPrL-14" value="&amp;lt;&amp;lt;artifact&amp;gt;&amp;gt;&lt;div&gt;&lt;font style=&quot;font-size: 10px;&quot;&gt;S3 Compatible Storage&lt;/font&gt;&lt;/div&gt;" style="text;html=1;align=center;verticalAlign=middle;whiteSpace=wrap;rounded=0;" vertex="1" parent="1">
          <mxGeometry x="844" y="690" width="115" height="22" as="geometry" />
        </mxCell>
        <mxCell id="We_NeUqxBmSDNywsmPrL-16" value="" style="endArrow=none;dashed=1;html=1;rounded=0;exitX=0;exitY=0;exitDx=50;exitDy=0;exitPerimeter=0;entryX=0;entryY=0;entryDx=60;entryDy=170;entryPerimeter=0;" edge="1" parent="1" source="39150e848f15840c-3" target="We_NeUqxBmSDNywsmPrL-11">
          <mxGeometry width="50" height="50" relative="1" as="geometry">
            <mxPoint x="580" y="548" as="sourcePoint" />
            <mxPoint x="780" y="548" as="targetPoint" />
          </mxGeometry>
        </mxCell>
        <mxCell id="We_NeUqxBmSDNywsmPrL-17" value="Replication" style="edgeLabel;html=1;align=center;verticalAlign=middle;resizable=0;points=[];" vertex="1" connectable="0" parent="We_NeUqxBmSDNywsmPrL-16">
          <mxGeometry x="-0.12" relative="1" as="geometry">
            <mxPoint x="-2" y="-15" as="offset" />
          </mxGeometry>
        </mxCell>
      </root>
    </mxGraphModel>
  </diagram>
</mxfile>
